<?xml version="1.0" encoding="utf-8"?>
<!-- Generator: Adobe Illustrator 24.3.0, SVG Export Plug-In . SVG Version: 6.00 Build 0)  -->
<svg version="1.0" id="katman_1" xmlns="http://www.w3.org/2000/svg" xmlns:xlink="http://www.w3.org/1999/xlink" x="0px" y="0px"
	 viewBox="0 0 841.89 595.28" style="enable-background:new 0 0 841.89 595.28;" xml:space="preserve">
<style type="text/css">
	.st0{fill:#FCBC05;}
	.st1{fill:#E94335;}
	.st2{fill:#1973E8;}
	.st3{fill:#34A853;}
	.st4{fill:#174FA7;}
</style>
<g>
	<path class="st0" d="M396.69,255.64h-48.5L277.4,133.02c-11.6-20.08-4.72-45.78,15.38-57.37c6.61-3.82,13.83-5.63,20.96-5.63
		c14.51,0,28.63,7.53,36.41,21.01l70.79,122.6L396.69,255.64z"/>
	<path class="st1" d="M549.11,519.63c-20.08,11.6-45.78,4.71-57.39-15.38l-70.79-122.6l-70.79,122.6
		c-11.6,20.08-37.29,26.98-57.37,15.38c-13.47-7.78-21.01-21.9-21.01-36.41c0-7.13,1.81-14.35,5.63-20.98l70.79-122.6H493.7
		l70.79,122.6C576.09,482.34,569.19,508.03,549.11,519.63z"/>
	<path class="st2" d="M677.28,297.63c0,23.2-18.81,42.01-42.01,42.01H493.7l-24.26-42.01l-24.24-42l-24.26-42.01l70.79-122.6
		c11.6-20.1,37.3-26.98,57.39-15.38c20.08,11.59,26.98,37.29,15.38,57.37L493.7,255.64h141.57
		C658.48,255.64,677.28,274.44,677.28,297.63z"/>
	<path class="st3" d="M396.69,255.64l-24.26,42l-24.24,42.01H206.6c-23.19,0-42-18.81-42-42.01c0-11.59,4.69-22.09,12.3-29.7
		c7.61-7.59,18.09-12.3,29.7-12.3H396.69z"/>
	<polygon class="st4" points="493.7,339.64 348.19,339.64 372.43,297.63 396.69,255.64 420.94,213.62 445.2,255.64 469.44,297.63 	
		"/>
</g>
</svg>
